<?xml version="1.0" standalone="no"?><!DOCTYPE svg PUBLIC "-//W3C//DTD SVG 1.1//EN" "http://www.w3.org/Graphics/SVG/1.1/DTD/svg11.dtd"><svg t="1734086399187" class="icon" viewBox="0 0 1024 1024" version="1.1" xmlns="http://www.w3.org/2000/svg" p-id="21454" xmlns:xlink="http://www.w3.org/1999/xlink" width="200" height="200"><path d="M810.3424 334.848c16.384 29.184 45.824 46.592 78.592 46.592 27.392 0 49.8176 22.9376 49.8176 51.3024v158.6688c0 28.16-22.4256 51.2-49.8176 51.2-32.8704 0-62.208 17.4592-78.592 46.6944a94.72 94.72 0 0 0 0 93.2864 52.0704 52.0704 0 0 1-18.2784 69.9904L658.688 931.84a49.152 49.152 0 0 1-67.9936-18.6368 89.344 89.344 0 0 0-78.592-46.7456c-32.768 0-62.208 17.408-78.592 46.6432a49.5104 49.5104 0 0 1-43.264 25.6 48.5888 48.5888 0 0 1-24.7296-6.8608L231.936 852.5824a50.6368 50.6368 0 0 1-23.2448-31.0784 51.7632 51.7632 0 0 1 4.9664-38.912 94.72 94.72 0 0 0 0-93.2864 89.4464 89.4464 0 0 0-78.592-46.6432c-27.392 0-49.8176-23.04-49.8176-51.2512v-158.72c0-28.16 22.4256-51.2 49.8176-51.2 32.768 0 62.208-17.4592 78.592-46.6944a94.72 94.72 0 0 0 0-93.2864 51.968 51.968 0 0 1 18.2272-69.9392l133.5296-79.3088a48.9984 48.9984 0 0 1 67.9936 18.7392 89.4464 89.4464 0 0 0 157.184 0 49.0496 49.0496 0 0 1 68.096-18.8416l133.376 79.36c23.808 14.1312 32 45.5168 18.2784 69.9904a94.72 94.72 0 0 0 0 93.2864zM512 750.8992A239.2576 239.2576 0 0 0 750.9504 512 239.4112 239.4112 0 0 0 512 273.0496 239.36 239.36 0 0 0 273.0496 512 239.36 239.36 0 0 0 512 750.9504z" fill="#707070" p-id="21455"></path><path d="M512 642.4064A130.6112 130.6112 0 0 1 381.5936 512 130.6112 130.6112 0 0 1 512 381.5936 130.6112 130.6112 0 0 1 642.4064 512 130.56 130.56 0 0 1 512 642.4064" fill="#707070" p-id="21456"></path></svg>