<?xml version="1.0" standalone="no"?><!DOCTYPE svg PUBLIC "-//W3C//DTD SVG 1.1//EN" "http://www.w3.org/Graphics/SVG/1.1/DTD/svg11.dtd"><svg t="1734086306265" class="icon" viewBox="0 0 1024 1024" version="1.1" xmlns="http://www.w3.org/2000/svg" p-id="18327" xmlns:xlink="http://www.w3.org/1999/xlink" width="200" height="200"><path d="M326.274008 186.646947c-17.088838 8.083941-33.461377 18.112122-48.605976 29.572899-12.074748 9.209553-14.4283 26.503048-5.218746 38.577796 5.423404 7.162986 13.609673 10.846807 22.000599 10.846807 5.832717 0 11.665434-1.841911 16.679524-5.62806 12.074748-9.209553 25.172779-17.191166 38.884781-23.637854 13.712002-6.549016 19.647047-22.921555 13.098031-36.735885-6.651344-13.609673-23.023883-19.44239-36.838213-12.995703zM244.411312 286.31478c-13.098031-7.674628-29.982212-3.376836-37.759169 9.823523-24.763466 42.159288-37.861497 90.355951-37.861496 139.473569 0 30.903168 5.116419 61.294694 15.144598 90.355951 3.990806 11.358449 14.632957 18.521435 25.991406 18.521435 2.967523 0 6.037374-0.511642 9.004897-1.534926 14.325972-5.01409 22.0006-20.670331 16.986509-35.098631-8.083941-23.126212-12.074748-47.480364-12.074747-72.243829 0-39.294094 10.437494-77.87189 30.289197-111.537924 7.776956-13.098031 3.479165-29.982212-9.721195-37.759168z" fill="#272636" p-id="18328"></path><path d="M948.942141 902.536225L723.308084 676.902168c56.075947-64.773858 90.151294-149.092435 90.151294-241.290296C813.35705 232.080743 647.789747 66.513441 444.258619 66.513441S75.160188 232.080743 75.160188 435.611872c0 203.531128 165.567303 369.098431 369.098431 369.098431 91.583891 0 175.390826-33.563705 239.960028-88.923354l225.736384 225.736385c5.423404 5.423404 12.484061 8.083941 19.442391 8.083941s14.121315-2.660538 19.44239-8.083941c10.846807-10.744479 10.846807-28.24263 0.102329-38.987109z m-818.626962-466.924353C130.315179 262.472269 271.221345 121.566104 444.258619 121.566104 617.398221 121.668432 758.304387 262.472269 758.304387 435.611872S617.398221 749.555311 444.258619 749.555311 130.315179 608.751474 130.315179 435.611872z" fill="#272636" p-id="18329"></path></svg>