<?xml version="1.0" standalone="no"?><!DOCTYPE svg PUBLIC "-//W3C//DTD SVG 1.1//EN" "http://www.w3.org/Graphics/SVG/1.1/DTD/svg11.dtd"><svg t="1734086348907" class="icon" viewBox="0 0 1024 1024" version="1.1" xmlns="http://www.w3.org/2000/svg" p-id="20416" xmlns:xlink="http://www.w3.org/1999/xlink" width="200" height="200"><path d="M550.16 427.5H290.34c-19.88 0-36-16.12-36-36s16.12-36 36-36h259.83c19.88 0 36 16.12 36 36s-16.12 36-36 36zM655.22 548.01a35.77 35.77 0 0 1-17.86-4.77c-17.25-9.88-23.23-31.88-13.35-49.13l237.1-414.07c9.88-17.25 31.88-23.23 49.13-13.35 17.25 9.88 23.23 31.88 13.35 49.13l-237.1 414.07c-6.65 11.61-18.79 18.12-31.27 18.12zM456.04 629.94h-165.7c-19.88 0-36-16.12-36-36s16.12-36 36-36h165.7c19.88 0 36 16.12 36 36s-16.12 36-36 36z" p-id="20417"></path><path d="M761.45 951.79H229.99c-74.99 0-136-61.01-136-136V197.74c0-74.99 61.01-136 136-136h434.32c19.88 0 36 16.12 36 36s-16.12 36-36 36H229.99c-35.29 0-64 28.71-64 64v618.05c0 35.29 28.71 64 64 64h531.46c35.29 0 64-28.71 64-64V506.77c0-19.88 16.12-36 36-36s36 16.12 36 36v309.02c0 74.99-61.01 136-136 136z" p-id="20418"></path></svg>