<?xml version="1.0" standalone="no"?><!DOCTYPE svg PUBLIC "-//W3C//DTD SVG 1.1//EN" "http://www.w3.org/Graphics/SVG/1.1/DTD/svg11.dtd"><svg t="1734060894750" class="icon" viewBox="0 0 1024 1024" version="1.1" xmlns="http://www.w3.org/2000/svg" p-id="9316" xmlns:xlink="http://www.w3.org/1999/xlink" width="200" height="200"><path d="M327.466667 290.133333c-5.333333 0-10.666667-2.133333-16-5.333333-10.666667-8.533333-12.8-24.533333-4.266667-36.266667 3.2-4.266667 88.533333-113.066667 208-114.133333 72.533333-1.066667 139.733333 37.333333 201.6 112 8.533333 10.666667 7.466667 26.666667-4.266667 36.266667-10.666667 8.533333-26.666667 7.466667-36.266666-4.266667-51.2-62.933333-104.533333-93.866667-161.066667-93.866667-94.933333 1.066667-167.466667 93.866667-168.533333 94.933334-4.266667 7.466667-11.733333 10.666667-19.2 10.666666z" fill="#717071" p-id="9317"></path><path d="M941.866667 439.466667H716.8v-54.4s0-1.066667-1.066667-1.066667h-41.6s-1.066667 0-1.066666 1.066667v54.4H347.733333v-54.4s0-1.066667-1.066666-1.066667h-41.6s-1.066667 0-1.066667 1.066667v54.4H82.133333v-57.6c0-65.066667 53.333333-117.333333 117.333334-117.333334h622.933333c65.066667 0 117.333333 53.333333 117.333333 117.333334v57.6z m-172.8-52.266667h120.533333v-5.333333c0-36.266667-29.866667-66.133333-66.133333-66.133334H200.533333c-36.266667 0-66.133333 29.866667-66.133333 66.133334v5.333333h117.333333v-2.133333c0-28.8 23.466667-52.266667 52.266667-52.266667h41.6c28.8 0 52.266667 23.466667 52.266667 52.266667v2.133333H618.666667v-2.133333c0-28.8 23.466667-52.266667 52.266666-52.266667h41.6c28.8 0 53.333333 23.466667 53.333334 52.266667v2.133333zM823.466667 929.066667H200.533333c-65.066667 0-117.333333-53.333333-117.333333-117.333334V446.933333h221.866667v57.6s0 1.066667 1.066666 1.066667h41.6s1.066667 0 1.066667-1.066667v-57.6h324.266667v57.6s0 1.066667 1.066666 1.066667h41.6s1.066667 0 1.066667-1.066667v-57.6h225.066667V810.666667c0 65.066667-53.333333 118.4-118.4 118.4zM134.4 499.2V810.666667c0 36.266667 29.866667 66.133333 66.133333 66.133333h622.933334c36.266667 0 66.133333-29.866667 66.133333-66.133333V499.2H769.066667v6.4c0 28.8-23.466667 52.266667-53.333334 52.266667h-41.6c-28.8 0-52.266667-23.466667-52.266666-52.266667v-6.4H400v6.4c0 28.8-23.466667 52.266667-52.266667 52.266667h-41.6c-28.8 0-52.266667-23.466667-52.266666-52.266667v-6.4H134.4z" fill="#666666" p-id="9318"></path><path d="M327.466667 518.4c-25.6 0-43.733333-30.933333-43.733334-71.466667s19.2-71.466667 43.733334-71.466666 43.733333 30.933333 43.733333 71.466666-19.2 71.466667-43.733333 71.466667z m0-112c-3.2 1.066667-12.8 13.866667-12.8 40.533333 0 25.6 9.6 39.466667 12.8 40.533334 3.2-1.066667 12.8-13.866667 12.8-40.533334 0-25.6-9.6-39.466667-12.8-40.533333zM696.533333 518.4c-24.533333 0-43.733333-30.933333-43.733333-71.466667s19.2-71.466667 43.733333-71.466666 43.733333 30.933333 43.733334 71.466666-19.2 71.466667-43.733334 71.466667z m0-112c-3.2 1.066667-12.8 13.866667-12.8 40.533333 0 25.6 9.6 39.466667 12.8 40.533334 3.2-1.066667 12.8-13.866667 12.8-40.533334 0-25.6-9.6-39.466667-12.8-40.533333z" fill="#B2B1B1" p-id="9319"></path></svg>