<?xml version="1.0" standalone="no"?><!DOCTYPE svg PUBLIC "-//W3C//DTD SVG 1.1//EN" "http://www.w3.org/Graphics/SVG/1.1/DTD/svg11.dtd"><svg t="1734075931211" class="icon" viewBox="0 0 1024 1024" version="1.1" xmlns="http://www.w3.org/2000/svg" p-id="8488" xmlns:xlink="http://www.w3.org/1999/xlink" width="200" height="200"><path d="M1008.603786 755.300811L755.576833 502.195107l239.403031-239.560532 0.945012-0.945012a42.919293 42.919293 0 0 0 0-56.07071l-0.393755-0.472506L822.43643 31.972905a47.801855 47.801855 0 0 0-33.94168-14.253931 47.801855 47.801855 0 0 0-33.94168 14.253931L519.8751 266.414622 268.423167 14.805187A46.463088 46.463088 0 0 0 234.796491 0.78751a48.825618 48.825618 0 0 0-34.335435 14.017677L14.2937 201.051295a47.801855 47.801855 0 0 0-14.096429 29.295371v9.371369c1.102514 11.02514 5.985076 21.184018 14.096429 29.29537l251.294431 251.373182L73.120694 712.775273a49.613128 49.613128 0 0 0-12.600159 22.444034l-0.157502 0.393755-42.525538 192.78244c-5.51257 21.262769 0.551257 43.313048 16.143954 59.063248a57.724481 57.724481 0 0 0 51.896907 18.348982c1.417518-0.236253 2.677534-0.315004 3.543795-0.315004h1.57502l194.829966-42.840542 1.417518-0.393755a51.975658 51.975658 0 0 0 20.947765-12.442658l193.333697-193.491199 253.026953 253.105704a46.541839 46.541839 0 0 0 33.469174 14.17518 48.825618 48.825618 0 0 0 34.414186-14.17518l186.167356-186.246108a47.486851 47.486851 0 0 0 0-67.883359z m-300.671306-585.119907l80.089764-80.168515 143.641818 143.641819-80.089763 80.247266-143.641819-143.641819z m97.493734 189.947405l-514.637764 515.504025-143.641819-143.641818L661.784396 216.565241l143.641818 143.641819zM311.421211 474.711009l-20.081504-20.160255 125.214085-125.214085-46.226835-46.226835-125.214085 125.214085-61.425778-61.425778L309.137432 221.290301l-46.148084-46.148084-125.529089 125.529089-65.127075-65.205825L234.796491 72.844672l238.851774 239.718035-162.227054 162.148302z m-81.586033 432.421724l-147.421866 32.445411 32.209158-147.73687 115.212708 115.291459z m618.746583-145.689344l-46.148084-46.305586-124.899082 124.899081-62.134536-62.134537 125.214085-125.214085-46.226835-46.148084-125.135334 125.214085-21.577773-21.577773 161.833298-161.833299 241.056802 239.560533-162.542058 162.620808-64.260813-64.260813 124.82033-124.899081z" p-id="8489"></path></svg>