<?xml version="1.0" standalone="no"?><!DOCTYPE svg PUBLIC "-//W3C//DTD SVG 1.1//EN" "http://www.w3.org/Graphics/SVG/1.1/DTD/svg11.dtd"><svg t="1734075998397" class="icon" viewBox="0 0 1024 1024" version="1.1" xmlns="http://www.w3.org/2000/svg" p-id="10706" xmlns:xlink="http://www.w3.org/1999/xlink" width="200" height="200"><path d="M579.84 998.4h-147.456c-37.376 0-67.584-30.464-67.584-67.584v-187.136H299.52c-26.112 0-49.408-14.592-60.672-37.888-11.52-23.296-8.704-50.688 7.424-71.168L463.616 355.84c10.24-13.056 25.6-20.736 42.24-20.992h0.768c16.384 0 31.488 7.168 41.984 19.968l228.352 278.528c16.64 20.48 20.224 47.872 8.96 71.936-11.264 23.808-34.816 38.656-61.184 38.656h-76.8v187.136c-0.256 36.864-30.72 67.328-68.096 67.328z m-133.376-81.664h119.552v-254.976h129.024L506.88 432.64l-178.688 229.12h118.272v254.976z m38.656-510.464s0.256 0 0 0z" p-id="10707"></path><path d="M896.512 834.048H757.76c-22.528 0-40.704-18.176-40.704-40.704S735.232 752.64 757.76 752.64h138.752c9.472 0 17.152-7.68 17.152-17.152v-483.84c0-9.472-7.68-17.152-17.152-17.152H529.92c-22.528 0-43.52-8.704-59.648-24.576-1.28-1.28-2.304-2.304-3.328-3.84l-71.168-91.136c-5.632-4.864-12.8-7.68-20.224-7.68H127.488c-9.472 0-17.152 7.68-17.152 17.152v611.072c0 9.472 7.68 17.152 17.152 17.152H245.76c22.528 0 40.704 18.176 40.704 40.704s-18.176 40.704-40.704 40.704H127.488c-54.528 0-98.56-44.288-98.56-98.56V124.16C28.928 69.888 73.216 25.6 127.488 25.6h248.064c29.952 0 58.112 11.776 79.36 33.024 1.28 1.28 2.304 2.304 3.328 3.84l70.656 90.368c0.256 0.256 0.768 0.256 1.024 0.256h366.336c54.528 0 98.56 44.288 98.56 98.56v483.84c0.256 54.272-44.032 98.56-98.304 98.56z" p-id="10708"></path></svg>