<?xml version="1.0" standalone="no"?><!DOCTYPE svg PUBLIC "-//W3C//DTD SVG 1.1//EN" "http://www.w3.org/Graphics/SVG/1.1/DTD/svg11.dtd"><svg t="1734075970400" class="icon" viewBox="0 0 1024 1024" version="1.1" xmlns="http://www.w3.org/2000/svg" p-id="9649" xmlns:xlink="http://www.w3.org/1999/xlink" width="200" height="200"><path d="M505.563429 339.748571c-82.651429 0-149.942857 66.925714-149.942858 149.065143 0 82.212571 67.291429 149.138286 149.942858 149.138286s149.942857-66.925714 149.942857-149.138286c0-82.139429-67.291429-149.065143-149.942857-149.065143z m0 234.057143a85.357714 85.357714 0 0 1-85.430858-84.992c0-46.811429 38.326857-84.918857 85.430858-84.918857 47.104 0 85.504 38.107429 85.504 84.918857s-38.4 84.992-85.504 84.992z m468.48-117.028571H890.148571a375.588571 375.588571 0 0 0-29.037714-117.248A384.658286 384.658286 0 0 0 655.798857 135.314286a388.388571 388.388571 0 0 0-117.979428-28.891429V23.113143h-64.512v83.382857a387.218286 387.218286 0 0 0-240.64 111.030857 380.562286 380.562286 0 0 0-111.689143 239.177143H37.083429v64.219429h83.894857c3.364571 40.448 13.019429 79.725714 29.037714 117.248a384.658286 384.658286 0 0 0 205.385143 204.068571 388.388571 388.388571 0 0 0 117.906286 28.891429v83.382857h64.512v-83.382857a387.218286 387.218286 0 0 0 240.64-111.030858 381.732571 381.732571 0 0 0 111.689142-239.177142h83.894858v-64.146286zM505.563429 808.228571c-177.152 0-321.389714-143.36-321.389715-319.488 0-176.128 144.237714-319.488 321.389715-319.488 177.225143 0 321.389714 143.36 321.389714 319.488 0 176.128-144.164571 319.488-321.389714 319.488z" fill="#060606" p-id="9650"></path></svg>